<svg width="205" height="81" viewBox="0 0 205 81" fill="none" xmlns="http://www.w3.org/2000/svg">
<g filter="url(#filter0_d_2_43)">
<path d="M39.752 36.872V53H30.664V36.872C30.664 31.304 27.784 29.064 23.688 29.064C20.296 29.064 17.288 32.584 17.288 36.872V53H8.2V20.68H17.288V22.92C18.76 21.128 22.408 19.976 25.224 19.976C29.96 19.976 34.248 22.152 36.168 25.096C39.24 21 44.36 19.976 47.688 19.976C57.608 19.976 62.408 27.528 62.408 36.872V53H53.384V36.872C53.384 31.944 50.376 29.064 46.728 29.064C42.76 29.064 39.752 32.584 39.752 36.872ZM91.5555 41.416L98.7875 46.984C96.0355 51.08 90.3395 53.704 84.5795 53.704C74.8515 53.704 67.0435 46.088 67.0435 36.872C67.0435 27.528 74.5315 19.976 83.8115 19.976C91.8115 19.976 97.9555 25.352 99.9395 31.368L81.8915 44.296C82.7235 44.616 83.6195 44.68 84.5795 44.68C87.3315 44.68 90.0835 43.72 91.5555 41.416ZM76.2595 36.872C76.2595 37.64 76.3235 38.344 76.5155 38.984L88.2915 30.6C87.0115 29.64 85.5395 29.064 83.8115 29.064C79.6515 29.064 76.2595 32.328 76.2595 36.872Z" fill="white"/>
<path d="M123.6 5.32H132.688V53H123.6V50.696C122.192 52.552 118.672 53.704 115.728 53.704C106.896 53.704 99.856 46.088 99.856 36.872C99.856 27.528 107.088 19.976 115.728 19.976C118.608 19.976 122.192 21.384 123.6 22.92V5.32ZM116.624 44.68C120.848 44.68 123.984 41.48 123.984 36.872C123.984 32.328 120.848 29.064 116.624 29.064C112.464 29.064 109.072 32.328 109.072 36.872C109.072 41.48 112.464 44.68 116.624 44.68ZM143.555 14.984C140.739 14.984 138.307 12.616 138.307 9.8C138.307 7.24 140.739 4.808 143.555 4.808C146.627 4.808 148.995 7.176 148.995 9.8C148.995 12.616 146.627 14.984 143.555 14.984ZM148.163 20.68V53H139.075V20.68H148.163ZM180.239 53H151.887L166.287 29.064H153.807V20.68H180.431L166.991 44.36H180.239V53Z" fill="#9B2FE1"/>
<path d="M195.696 20.32V52.96H187.312V20.32H195.696ZM191.472 59.04C194.416 59.04 196.464 61.216 196.464 63.968C196.464 66.592 194.416 68.832 191.472 68.832C188.528 68.832 186.544 66.592 186.544 63.968C186.544 61.216 188.592 59.04 191.472 59.04Z" fill="white"/>
</g>
<defs>
<filter id="filter0_d_2_43" x="0.200012" y="0.807999" width="204.264" height="80.024" filterUnits="userSpaceOnUse" color-interpolation-filters="sRGB">
<feFlood flood-opacity="0" result="BackgroundImageFix"/>
<feColorMatrix in="SourceAlpha" type="matrix" values="0 0 0 0 0 0 0 0 0 0 0 0 0 0 0 0 0 0 127 0" result="hardAlpha"/>
<feOffset dy="4"/>
<feGaussianBlur stdDeviation="4"/>
<feComposite in2="hardAlpha" operator="out"/>
<feColorMatrix type="matrix" values="0 0 0 0 0 0 0 0 0 0 0 0 0 0 0 0 0 0 0.25 0"/>
<feBlend mode="normal" in2="BackgroundImageFix" result="effect1_dropShadow_2_43"/>
<feBlend mode="normal" in="SourceGraphic" in2="effect1_dropShadow_2_43" result="shape"/>
</filter>
</defs>
</svg>
