<svg width="36" height="65" viewBox="0 0 36 65" fill="none" xmlns="http://www.w3.org/2000/svg">
<path d="M30.696 16.32V48.96H22.312V16.32H30.696ZM26.472 55.04C29.416 55.04 31.464 57.216 31.464 59.968C31.464 62.592 29.416 64.832 26.472 64.832C23.528 64.832 21.544 62.592 21.544 59.968C21.544 57.216 23.592 55.04 26.472 55.04Z" fill="white"/>
<path d="M7.68 10.984C4.864 10.984 2.432 8.616 2.432 5.8C2.432 3.24 4.864 0.807999 7.68 0.807999C10.752 0.807999 13.12 3.176 13.12 5.8C13.12 8.616 10.752 10.984 7.68 10.984ZM12.288 16.68V49H3.2V16.68H12.288Z" fill="#9B2FE1"/>
</svg>
